<?xml version="1.0" encoding="utf-8"?>
<!-- Generator: Adobe Illustrator 21.0.0, SVG Export Plug-In . SVG Version: 6.00 Build 0)  -->
<svg version="1.1" id="Layer_2" xmlns="http://www.w3.org/2000/svg" xmlns:xlink="http://www.w3.org/1999/xlink" x="0px" y="0px"
	 viewBox="0 0 1170.9 747.3" style="enable-background:new 0 0 1170.9 747.3;" xml:space="preserve">
<style type="text/css">
	.st0{fill:url(#SVGID_1_);stroke:#000000;stroke-width:0.7841;stroke-miterlimit:10;}
	.st1{fill:url(#SVGID_2_);stroke:#000000;stroke-width:0.7841;stroke-miterlimit:10;}
	.st2{fill:url(#SVGID_3_);stroke:#000000;stroke-width:0.7841;stroke-miterlimit:10;}
	.st3{fill:url(#SVGID_4_);stroke:#000000;stroke-width:0.7841;stroke-miterlimit:10;}
	.st4{fill:url(#SVGID_5_);stroke:#000000;stroke-width:0.7841;stroke-miterlimit:10;}
	.st5{fill:url(#SVGID_6_);stroke:#000000;stroke-width:0.7841;stroke-miterlimit:10;}
	.st6{fill:url(#SVGID_7_);stroke:#000000;stroke-width:0.7841;stroke-miterlimit:10;}
	.st7{fill:url(#SVGID_8_);}
	.st8{fill:url(#SVGID_9_);}
	.st9{fill:url(#SVGID_10_);}
	.st10{fill:url(#SVGID_11_);}
	.st11{fill:url(#SVGID_12_);}
	.st12{fill:url(#SVGID_13_);}
	.st13{fill:url(#SVGID_14_);}
	.st14{fill:none;stroke:#000000;stroke-width:0.7841;stroke-miterlimit:10;}
</style>
<g>
	<g>
		<linearGradient id="SVGID_1_" gradientUnits="userSpaceOnUse" x1="575.2479" y1="340.201" x2="595.5906" y2="340.201">
			<stop  offset="0" style="stop-color:#A47B2C"/>
			<stop  offset="0.1243" style="stop-color:#D3A84B"/>
			<stop  offset="0.3541" style="stop-color:#FEEB94"/>
			<stop  offset="0.5378" style="stop-color:#E5BE68"/>
			<stop  offset="0.7054" style="stop-color:#FFD87B"/>
			<stop  offset="0.8676" style="stop-color:#B58F3E"/>
			<stop  offset="1" style="stop-color:#946E2A"/>
		</linearGradient>
		<path class="st0" d="M584.8,344.6c0.8,0,1.5,0.1,2.3,0.2c0.1,0,0.2,0,0.3,0.1l0-4.6c2.9,0.3,5.7,1.2,8.1,2.5l0-5.2
			c-3.1-1.3-6.5-2.1-10.1-2.1c-3.6,0-7.1,0.7-10.2,2.1v5.3c1.3-0.7,2.6-1.3,4-1.8c1.3-0.4,2.7-0.7,4.1-0.9l0,4.3
			C584.1,344.6,584.7,344.6,584.8,344.6C584.8,344.6,584.8,344.6,584.8,344.6z"/>
		<g>
			<linearGradient id="SVGID_2_" gradientUnits="userSpaceOnUse" x1="589.477" y1="360.5963" x2="609.6393" y2="359.5779">
				<stop  offset="0" style="stop-color:#A47B2C"/>
				<stop  offset="0.1243" style="stop-color:#D3A84B"/>
				<stop  offset="0.3541" style="stop-color:#FEEB94"/>
				<stop  offset="0.5378" style="stop-color:#E5BE68"/>
				<stop  offset="0.7054" style="stop-color:#FFD87B"/>
				<stop  offset="0.8676" style="stop-color:#B58F3E"/>
				<stop  offset="1" style="stop-color:#946E2A"/>
			</linearGradient>
			<path class="st1" d="M577.2,375.5c0.1,0.1,0.2,0.1,0.4,0.2c0-0.2,0-0.3,0-0.5c-0.2-2.9-1-5.6-2.3-8.1c-0.9-1.8-2.1-3.4-3.5-4.8
				c-0.3-0.3-0.7-0.6-1-0.8c-0.4-0.3-0.9-0.6-1.1-1c0,0,0.6,0,0.6,0c0.3,0,0.5,0.1,0.8,0.1c2.8,0.1,5.7-1.3,7.1-3.8
				c0.6-1.2,1-2.5,1.1-3.9c0,0,0-0.1,0-0.1c0,0,0-0.1,0-0.1c0-0.1,0-0.1,0-0.2c0-0.1,0-0.1,0-0.2c0-0.3,0-0.7-0.1-1
				c-0.1-0.5-0.2-1.1-0.3-1.6c-0.3-1.2-0.9-2.4-1.7-3.4c-1.4-1.8-3.5-2.9-5.6-3.9c-0.5-0.2-0.9-0.4-1.4-0.6
				c-0.2-0.1-0.7-0.4-0.9-0.3c-0.5,0.4-1,0.9-1.5,1.3c-3.7,3.5-6.3,8-7.4,13.1c0,0.2-0.1,0.4-0.1,0.6c-0.3,1.5-0.4,3-0.4,4.5
				c0,0,0,0.1,0,0.1c0,7.8,3.7,14.8,9.4,19.4c0.7,0.6,1.4,1.1,2.2,1.6l0-2.5l0-3.4c-3.6-3.3-6.1-8-6.6-13.1c1.2,0.7,2.3,1.6,3.3,2.7
				c1.4,1.5,2.6,3.3,3.3,5.3c0.1,0.3,0.2,0.5,0.3,0.8c1,1,2.1,1.9,3.3,2.7C575.9,374.8,576.5,375.1,577.2,375.5z M567.9,356.3
				c-0.2-0.1-2.3-0.9-2.3-0.9c0.8-3,2.5-5.7,4.6-7.8c0.2-0.1,2.1,1.3,2.3,1.4c1.7,1.5,2.4,4,1.4,5.7c-0.5,1-1.5,1.6-2.6,1.8
				C570.2,356.8,569,356.6,567.9,356.3z"/>
			<linearGradient id="SVGID_3_" gradientUnits="userSpaceOnUse" x1="587.5223" y1="373.936" x2="592.8721" y2="373.936">
				<stop  offset="0" style="stop-color:#A47B2C"/>
				<stop  offset="0.1243" style="stop-color:#D3A84B"/>
				<stop  offset="0.3541" style="stop-color:#FEEB94"/>
				<stop  offset="0.5378" style="stop-color:#E5BE68"/>
				<stop  offset="0.7054" style="stop-color:#FFD87B"/>
				<stop  offset="0.8676" style="stop-color:#B58F3E"/>
				<stop  offset="1" style="stop-color:#946E2A"/>
			</linearGradient>
			<path class="st2" d="M592.9,374.9c-1.6,0.9-3.4,1.5-5.3,1.9l0-5c0.9-0.1,1.8-0.4,2.6-0.7C590.9,372.5,591.8,373.8,592.9,374.9z"
				/>
			<linearGradient id="SVGID_4_" gradientUnits="userSpaceOnUse" x1="593.8298" y1="365.3631" x2="601.4142" y2="365.3631">
				<stop  offset="0" style="stop-color:#A47B2C"/>
				<stop  offset="0.1243" style="stop-color:#D3A84B"/>
				<stop  offset="0.3541" style="stop-color:#FEEB94"/>
				<stop  offset="0.5378" style="stop-color:#E5BE68"/>
				<stop  offset="0.7054" style="stop-color:#FFD87B"/>
				<stop  offset="0.8676" style="stop-color:#B58F3E"/>
				<stop  offset="1" style="stop-color:#946E2A"/>
			</linearGradient>
			<path class="st3" d="M601.4,360.8c0,2.7-0.7,5.3-2,7.6v0c-0.8,1.4-1.7,2.6-2.8,3.7c-0.4-0.4-0.8-0.9-1.2-1.4
				c-0.6-0.8-1.2-1.7-1.6-2.6c0,0,0-0.1,0.1-0.1c0,0,0,0.1,0,0.1c0.6-0.7,1.2-1.5,1.6-2.4v0c0.8-1.5,1.2-3.2,1.2-5.1
				c0-0.7-0.1-1.4-0.2-2l-0.1,0v0l3,0l1.8,0C601.4,359.3,601.4,360.1,601.4,360.8z"/>
			<linearGradient id="SVGID_5_" gradientUnits="userSpaceOnUse" x1="575.2479" y1="367.6667" x2="595.408" y2="367.6667">
				<stop  offset="0" style="stop-color:#A47B2C"/>
				<stop  offset="0.1243" style="stop-color:#D3A84B"/>
				<stop  offset="0.3541" style="stop-color:#FEEB94"/>
				<stop  offset="0.5378" style="stop-color:#E5BE68"/>
				<stop  offset="0.7054" style="stop-color:#FFD87B"/>
				<stop  offset="0.8676" style="stop-color:#B58F3E"/>
				<stop  offset="1" style="stop-color:#946E2A"/>
			</linearGradient>
			<path class="st4" d="M595.4,378.9l0,5.1v0c-3.1,1.3-6.4,2-9.9,2c-3.3,0-6.4-0.6-9.3-1.7c-0.3-0.1-0.6-0.2-0.9-0.4v-5.2
				c0.7,0.4,1.4,0.7,2.1,1.1c1.9,0.8,3.9,1.4,6.1,1.6l0-4.3l0-5.1l0-22.4c0.6-0.1,1.3-0.2,1.9-0.2c0.7,0,1.5,0.1,2.2,0.2l0,9.9v0
				c0,0,0,3.2,0,3.2v0l0,9.1v0l0,5l0,4.6C590.4,381,593,380.2,595.4,378.9z"/>
			<linearGradient id="SVGID_6_" gradientUnits="userSpaceOnUse" x1="587.5089" y1="361.5922" x2="610.9734" y2="361.5922">
				<stop  offset="0" style="stop-color:#A47B2C"/>
				<stop  offset="0.1243" style="stop-color:#D3A84B"/>
				<stop  offset="0.3541" style="stop-color:#FEEB94"/>
				<stop  offset="0.5378" style="stop-color:#E5BE68"/>
				<stop  offset="0.7054" style="stop-color:#FFD87B"/>
				<stop  offset="0.8676" style="stop-color:#B58F3E"/>
				<stop  offset="1" style="stop-color:#946E2A"/>
			</linearGradient>
			<path class="st5" d="M611,360.8c0,6.1-2.2,11.6-5.8,16c-1.1,1.4-2.4,2.6-3.8,3.7c-0.6,0.5-1.2,0.9-1.9,1.4l0-2.1l0-3.8
				c0.3-0.3,0.6-0.6,0.9-0.9c3.5-3.7,5.7-8.7,5.7-14.2c0-0.7,0-1.5-0.1-2.2l-4.7,0l-1.8,0l-3,0l-1,0l-3.2,0c0,0-0.2,1.4-0.2,2.2
				c0,0,0,0.1,0,0.1c0,2.6,0.6,5,1.7,7.2c0.5,0.9,1,1.8,1.6,2.6c0.4,0.5,0.8,0.9,1.2,1.4c-0.4,0.4-0.8,0.7-1.2,1.1
				c-0.8,0.6-1.7,1.2-2.6,1.7c-1.1-1.1-2-2.4-2.7-3.8c0,0,0,0,0,0c0,0,0-0.1-0.1-0.1c-1.4-2.5-2.3-5.3-2.5-8.3v0c0,0,0-3.2,0-3.2v0
				c0-2.1,0.6-4.2,1.5-6c0.1-0.3,1.3-2.8,1.4-2.8c0,0,0,0,0,0c0.4,0.2,0.7,0.4,1,0.6c0.1,0.1,0.2,0.1,0.2,0.2
				c0.2,0.1,0.3,0.2,0.5,0.3c0.7,0.5,1.3,1.1,1.9,1.8c0,0,0,0.1,0.1,0.1c0.1,0.1-0.2,0.7-0.5,1.2l1.3,0h0.1l0.5,0l3.9,0l0.7,0l5,0
				c-0.9-2.9-2.5-5.6-4.5-7.8c-0.4,0.2-0.8,0.5-1.2,0.7c-1,0.6-1.8,1.4-2.7,2.2c-0.4-0.4-0.8-0.8-1.2-1.1c-0.8-0.6-1.6-1.2-2.5-1.7
				c0.8-0.8,1.6-1.6,2.5-2.3c0.4-0.3,0.9-0.7,1.4-0.9c0.8-0.5,1.6-1,2.5-1.4c0.7-0.3,1.5-0.7,2.3-0.9c1.4,1.1,2.6,2.4,3.8,3.8
				C608.9,349.4,611,354.9,611,360.8z"/>
			<linearGradient id="SVGID_7_" gradientUnits="userSpaceOnUse" x1="579.2792" y1="360.6122" x2="600.1282" y2="360.6122">
				<stop  offset="0" style="stop-color:#A47B2C"/>
				<stop  offset="0.1243" style="stop-color:#D3A84B"/>
				<stop  offset="0.3541" style="stop-color:#FEEB94"/>
				<stop  offset="0.5378" style="stop-color:#E5BE68"/>
				<stop  offset="0.7054" style="stop-color:#FFD87B"/>
				<stop  offset="0.8676" style="stop-color:#B58F3E"/>
				<stop  offset="1" style="stop-color:#946E2A"/>
			</linearGradient>
			<path class="st6" d="M600.1,354.6l-0.7,0l-3.9,0l-0.5,0h-0.1c-0.3-0.4-0.5-0.8-0.8-1.2c0,0,0-0.1-0.1-0.1
				c-0.6-0.7-1.2-1.3-1.9-1.8c-0.2-0.1-0.3-0.2-0.5-0.3c-0.1-0.1-0.2-0.1-0.2-0.2c-0.3-0.2-0.7-0.4-1-0.6c0,0,0,0,0,0
				c0,0-0.1,0-0.1,0c-0.9-0.4-1.8-0.7-2.7-0.9c0,0-0.1,0-0.1,0c-0.7-0.1-1.4-0.2-2.2-0.2c-0.7,0-1.3,0.1-1.9,0.2l0,27.3
				c-1.4-0.1-2.6,0-3.9,0l0-3.8l0-2.6l-0.1-19.3l0-2.6l0-0.9c0,0,0.1-3,0.1-3c0-0.2,2.4-0.1,4-0.1c0.7,0,1.3,0.1,1.5,0.1
				c0,0,0,0,0,0c0.8,0,1.5,0.1,2.3,0.2c0.1,0,0.2,0,0.3,0.1c2,0.3,3.9,1,5.6,2c0.9,0.5,1.7,1.1,2.5,1.7c0.4,0.4,0.8,0.7,1.2,1.1
				c1,1.1,1.9,2.2,2.7,3.5C599.7,353.7,599.9,354.1,600.1,354.6z"/>
		</g>
	</g>
	<g>
		
			<linearGradient id="SVGID_8_" gradientUnits="userSpaceOnUse" x1="687.0092" y1="516.0294" x2="738.0469" y2="516.0294" gradientTransform="matrix(1 0 0 1 -127.0735 -155.2551)">
			<stop  offset="0" style="stop-color:#A47B2C"/>
			<stop  offset="6.988832e-02" style="stop-color:#D3A84B"/>
			<stop  offset="0.3497" style="stop-color:#FEEB94"/>
			<stop  offset="0.5383" style="stop-color:#E5BE68"/>
			<stop  offset="0.7789" style="stop-color:#FFD87B"/>
			<stop  offset="1" style="stop-color:#C8A14D"/>
			<stop  offset="1" style="stop-color:#B58F3E"/>
			<stop  offset="1" style="stop-color:#946E2A"/>
		</linearGradient>
		<path class="st7" d="M584.8,344.6c0.8,0,1.5,0.1,2.3,0.2c0.1,0,0.2,0,0.3,0.1l0-4.6c2.9,0.3,5.7,1.2,8.1,2.5l0-5.2
			c-3.1-1.3-6.5-2.1-10.1-2.1c-3.6,0-7.1,0.7-10.2,2.1v5.3c1.3-0.7,2.6-1.3,4-1.8c1.3-0.4,2.7-0.7,4.1-0.9l0,4.3
			C584.1,344.6,584.7,344.6,584.8,344.6C584.8,344.6,584.8,344.6,584.8,344.6z"/>
		<g>
			
				<linearGradient id="SVGID_9_" gradientUnits="userSpaceOnUse" x1="687.0092" y1="516.0294" x2="738.0469" y2="516.0294" gradientTransform="matrix(1 0 0 1 -127.0735 -155.2551)">
				<stop  offset="0" style="stop-color:#A47B2C"/>
				<stop  offset="6.988832e-02" style="stop-color:#D3A84B"/>
				<stop  offset="0.3497" style="stop-color:#FEEB94"/>
				<stop  offset="0.5383" style="stop-color:#E5BE68"/>
				<stop  offset="0.7789" style="stop-color:#FFD87B"/>
				<stop  offset="1" style="stop-color:#C8A14D"/>
				<stop  offset="1" style="stop-color:#B58F3E"/>
				<stop  offset="1" style="stop-color:#946E2A"/>
			</linearGradient>
			<path class="st8" d="M577.2,375.5c0.1,0.1,0.2,0.1,0.4,0.2c0-0.2,0-0.3,0-0.5c-0.2-2.9-1-5.6-2.3-8.1c-0.9-1.8-2.1-3.4-3.5-4.8
				c-0.3-0.3-0.7-0.6-1-0.8c-0.4-0.3-0.9-0.6-1.1-1c0,0,0.6,0,0.6,0c0.3,0,0.5,0.1,0.8,0.1c2.8,0.1,5.7-1.3,7.1-3.8
				c0.6-1.2,1-2.5,1.1-3.9c0,0,0-0.1,0-0.1c0,0,0-0.1,0-0.1c0-0.1,0-0.1,0-0.2c0-0.1,0-0.1,0-0.2c0-0.3,0-0.7-0.1-1
				c-0.1-0.5-0.2-1.1-0.3-1.6c-0.3-1.2-0.9-2.4-1.7-3.4c-1.4-1.8-3.5-2.9-5.6-3.9c-0.5-0.2-0.9-0.4-1.4-0.6
				c-0.2-0.1-0.7-0.4-0.9-0.3c-0.5,0.4-1,0.9-1.5,1.3c-3.7,3.5-6.3,8-7.4,13.1c0,0.2-0.1,0.4-0.1,0.6c-0.3,1.5-0.4,3-0.4,4.5
				c0,0,0,0.1,0,0.1c0,7.8,3.7,14.8,9.4,19.4c0.7,0.6,1.4,1.1,2.2,1.6l0-2.5l0-3.4c-3.6-3.3-6.1-8-6.6-13.1c1.2,0.7,2.3,1.6,3.3,2.7
				c1.4,1.5,2.6,3.3,3.3,5.3c0.1,0.3,0.2,0.5,0.3,0.8c1,1,2.1,1.9,3.3,2.7C575.9,374.8,576.5,375.1,577.2,375.5z M567.9,356.3
				c-0.2-0.1-2.3-0.9-2.3-0.9c0.8-3,2.5-5.7,4.6-7.8c0.2-0.1,2.1,1.3,2.3,1.4c1.7,1.5,2.4,4,1.4,5.7c-0.5,1-1.5,1.6-2.6,1.8
				C570.2,356.8,569,356.6,567.9,356.3z"/>
			
				<linearGradient id="SVGID_10_" gradientUnits="userSpaceOnUse" x1="687.0092" y1="516.0294" x2="738.0469" y2="516.0294" gradientTransform="matrix(1 0 0 1 -127.0735 -155.2551)">
				<stop  offset="0" style="stop-color:#A47B2C"/>
				<stop  offset="6.988832e-02" style="stop-color:#D3A84B"/>
				<stop  offset="0.3497" style="stop-color:#FEEB94"/>
				<stop  offset="0.5383" style="stop-color:#E5BE68"/>
				<stop  offset="0.7789" style="stop-color:#FFD87B"/>
				<stop  offset="1" style="stop-color:#C8A14D"/>
				<stop  offset="1" style="stop-color:#B58F3E"/>
				<stop  offset="1" style="stop-color:#946E2A"/>
			</linearGradient>
			<path class="st9" d="M592.9,374.9c-1.6,0.9-3.4,1.5-5.3,1.9l0-5c0.9-0.1,1.8-0.4,2.6-0.7C590.9,372.5,591.8,373.8,592.9,374.9z"
				/>
			
				<linearGradient id="SVGID_11_" gradientUnits="userSpaceOnUse" x1="687.0092" y1="516.0294" x2="738.0469" y2="516.0294" gradientTransform="matrix(1 0 0 1 -127.0735 -155.2551)">
				<stop  offset="0" style="stop-color:#A47B2C"/>
				<stop  offset="6.988832e-02" style="stop-color:#D3A84B"/>
				<stop  offset="0.3497" style="stop-color:#FEEB94"/>
				<stop  offset="0.5383" style="stop-color:#E5BE68"/>
				<stop  offset="0.7789" style="stop-color:#FFD87B"/>
				<stop  offset="1" style="stop-color:#C8A14D"/>
				<stop  offset="1" style="stop-color:#B58F3E"/>
				<stop  offset="1" style="stop-color:#946E2A"/>
			</linearGradient>
			<path class="st10" d="M601.4,360.8c0,2.7-0.7,5.3-2,7.6v0c-0.8,1.4-1.7,2.6-2.8,3.7c-0.4-0.4-0.8-0.9-1.2-1.4
				c-0.6-0.8-1.2-1.7-1.6-2.6c0,0,0-0.1,0.1-0.1c0,0,0,0.1,0,0.1c0.6-0.7,1.2-1.5,1.6-2.4v0c0.8-1.5,1.2-3.2,1.2-5.1
				c0-0.7-0.1-1.4-0.2-2l-0.1,0v0l3,0l1.8,0C601.4,359.3,601.4,360.1,601.4,360.8z"/>
			
				<linearGradient id="SVGID_12_" gradientUnits="userSpaceOnUse" x1="687.0092" y1="516.0294" x2="738.0469" y2="516.0294" gradientTransform="matrix(1 0 0 1 -127.0735 -155.2551)">
				<stop  offset="0" style="stop-color:#A47B2C"/>
				<stop  offset="6.988832e-02" style="stop-color:#D3A84B"/>
				<stop  offset="0.3497" style="stop-color:#FEEB94"/>
				<stop  offset="0.5383" style="stop-color:#E5BE68"/>
				<stop  offset="0.7789" style="stop-color:#FFD87B"/>
				<stop  offset="1" style="stop-color:#C8A14D"/>
				<stop  offset="1" style="stop-color:#B58F3E"/>
				<stop  offset="1" style="stop-color:#946E2A"/>
			</linearGradient>
			<path class="st11" d="M595.4,378.9l0,5.1v0c-3.1,1.3-6.4,2-9.9,2c-3.3,0-6.4-0.6-9.3-1.7c-0.3-0.1-0.6-0.2-0.9-0.4v-5.2
				c0.7,0.4,1.4,0.7,2.1,1.1c1.9,0.8,3.9,1.4,6.1,1.6l0-4.3l0-5.1l0-22.4c0.6-0.1,1.3-0.2,1.9-0.2c0.7,0,1.5,0.1,2.2,0.2l0,9.9v0
				c0,0,0,3.2,0,3.2v0l0,9.1v0l0,5l0,4.6C590.4,381,593,380.2,595.4,378.9z"/>
			
				<linearGradient id="SVGID_13_" gradientUnits="userSpaceOnUse" x1="687.0092" y1="516.0294" x2="738.0469" y2="516.0294" gradientTransform="matrix(1 0 0 1 -127.0735 -155.2551)">
				<stop  offset="0" style="stop-color:#A47B2C"/>
				<stop  offset="6.988832e-02" style="stop-color:#D3A84B"/>
				<stop  offset="0.3497" style="stop-color:#FEEB94"/>
				<stop  offset="0.5383" style="stop-color:#E5BE68"/>
				<stop  offset="0.7789" style="stop-color:#FFD87B"/>
				<stop  offset="1" style="stop-color:#C8A14D"/>
				<stop  offset="1" style="stop-color:#B58F3E"/>
				<stop  offset="1" style="stop-color:#946E2A"/>
			</linearGradient>
			<path class="st12" d="M611,360.8c0,6.1-2.2,11.6-5.8,16c-1.1,1.4-2.4,2.6-3.8,3.7c-0.6,0.5-1.2,0.9-1.9,1.4l0-2.1l0-3.8
				c0.3-0.3,0.6-0.6,0.9-0.9c3.5-3.7,5.7-8.7,5.7-14.2c0-0.7,0-1.5-0.1-2.2l-4.7,0l-1.8,0l-3,0l-1,0l-3.2,0c0,0-0.2,1.4-0.2,2.2
				c0,0,0,0.1,0,0.1c0,2.6,0.6,5,1.7,7.2c0.5,0.9,1,1.8,1.6,2.6c0.4,0.5,0.8,0.9,1.2,1.4c-0.4,0.4-0.8,0.7-1.2,1.1
				c-0.8,0.6-1.7,1.2-2.6,1.7c-1.1-1.1-2-2.4-2.7-3.8c0,0,0,0,0,0c0,0,0-0.1-0.1-0.1c-1.4-2.5-2.3-5.3-2.5-8.3v0c0,0,0-3.2,0-3.2v0
				c0-2.1,0.6-4.2,1.5-6c0.1-0.3,1.3-2.8,1.4-2.8c0,0,0,0,0,0c0.4,0.2,0.7,0.4,1,0.6c0.1,0.1,0.2,0.1,0.2,0.2
				c0.2,0.1,0.3,0.2,0.5,0.3c0.7,0.5,1.3,1.1,1.9,1.8c0,0,0,0.1,0.1,0.1c0.1,0.1-0.2,0.7-0.5,1.2l1.3,0h0.1l0.5,0l3.9,0l0.7,0l5,0
				c-0.9-2.9-2.5-5.6-4.5-7.8c-0.4,0.2-0.8,0.5-1.2,0.7c-1,0.6-1.8,1.4-2.7,2.2c-0.4-0.4-0.8-0.8-1.2-1.1c-0.8-0.6-1.6-1.2-2.5-1.7
				c0.8-0.8,1.6-1.6,2.5-2.3c0.4-0.3,0.9-0.7,1.4-0.9c0.8-0.5,1.6-1,2.5-1.4c0.7-0.3,1.5-0.7,2.3-0.9c1.4,1.1,2.6,2.4,3.8,3.8
				C608.9,349.4,611,354.9,611,360.8z"/>
			
				<linearGradient id="SVGID_14_" gradientUnits="userSpaceOnUse" x1="687.0092" y1="516.0294" x2="738.0469" y2="516.0294" gradientTransform="matrix(1 0 0 1 -127.0735 -155.2551)">
				<stop  offset="0" style="stop-color:#A47B2C"/>
				<stop  offset="6.988832e-02" style="stop-color:#D3A84B"/>
				<stop  offset="0.3497" style="stop-color:#FEEB94"/>
				<stop  offset="0.5383" style="stop-color:#E5BE68"/>
				<stop  offset="0.7789" style="stop-color:#FFD87B"/>
				<stop  offset="1" style="stop-color:#C8A14D"/>
				<stop  offset="1" style="stop-color:#B58F3E"/>
				<stop  offset="1" style="stop-color:#946E2A"/>
			</linearGradient>
			<path class="st13" d="M600.1,354.6l-0.7,0l-3.9,0l-0.5,0h-0.1c-0.3-0.4-0.5-0.8-0.8-1.2c0,0,0-0.1-0.1-0.1
				c-0.6-0.7-1.2-1.3-1.9-1.8c-0.2-0.1-0.3-0.2-0.5-0.3c-0.1-0.1-0.2-0.1-0.2-0.2c-0.3-0.2-0.7-0.4-1-0.6c0,0,0,0,0,0
				c0,0-0.1,0-0.1,0c-0.9-0.4-1.8-0.7-2.7-0.9c0,0-0.1,0-0.1,0c-0.7-0.1-1.4-0.2-2.2-0.2c-0.7,0-1.3,0.1-1.9,0.2l0,27.3
				c-1.4-0.1-2.6,0-3.9,0l0-3.8l0-2.6l-0.1-19.3l0-2.6l0-0.9c0,0,0.1-3,0.1-3c0-0.2,2.4-0.1,4-0.1c0.7,0,1.3,0.1,1.5,0.1
				c0,0,0,0,0,0c0.8,0,1.5,0.1,2.3,0.2c0.1,0,0.2,0,0.3,0.1c2,0.3,3.9,1,5.6,2c0.9,0.5,1.7,1.1,2.5,1.7c0.4,0.4,0.8,0.7,1.2,1.1
				c1,1.1,1.9,2.2,2.7,3.5C599.7,353.7,599.9,354.1,600.1,354.6z"/>
		</g>
	</g>
	<g>
		<path class="st14" d="M584.8,344.6c0.8,0,1.5,0.1,2.3,0.2c0.1,0,0.2,0,0.3,0.1l0-4.6c2.9,0.3,5.7,1.2,8.1,2.5l0-5.2
			c-3.1-1.3-6.5-2.1-10.1-2.1c-3.6,0-7.1,0.7-10.2,2.1v5.3c1.3-0.7,2.6-1.3,4-1.8c1.3-0.4,2.7-0.7,4.1-0.9l0,4.3
			C584.1,344.6,584.7,344.6,584.8,344.6C584.8,344.6,584.8,344.6,584.8,344.6z"/>
		<g>
			<path class="st14" d="M577.2,375.5c0.1,0.1,0.2,0.1,0.4,0.2c0-0.2,0-0.3,0-0.5c-0.2-2.9-1-5.6-2.3-8.1c-0.9-1.8-2.1-3.4-3.5-4.8
				c-0.3-0.3-0.7-0.6-1-0.8c-0.4-0.3-0.9-0.6-1.1-1c0,0,0.6,0,0.6,0c0.3,0,0.5,0.1,0.8,0.1c2.8,0.1,5.7-1.3,7.1-3.8
				c0.6-1.2,1-2.5,1.1-3.9c0,0,0-0.1,0-0.1c0,0,0-0.1,0-0.1c0-0.1,0-0.1,0-0.2c0-0.1,0-0.1,0-0.2c0-0.3,0-0.7-0.1-1
				c-0.1-0.5-0.2-1.1-0.3-1.6c-0.3-1.2-0.9-2.4-1.7-3.4c-1.4-1.8-3.5-2.9-5.6-3.9c-0.5-0.2-0.9-0.4-1.4-0.6
				c-0.2-0.1-0.7-0.4-0.9-0.3c-0.5,0.4-1,0.9-1.5,1.3c-3.7,3.5-6.3,8-7.4,13.1c0,0.2-0.1,0.4-0.1,0.6c-0.3,1.5-0.4,3-0.4,4.5
				c0,0,0,0.1,0,0.1c0,7.8,3.7,14.8,9.4,19.4c0.7,0.6,1.4,1.1,2.2,1.6l0-2.5l0-3.4c-3.6-3.3-6.1-8-6.6-13.1c1.2,0.7,2.3,1.6,3.3,2.7
				c1.4,1.5,2.6,3.3,3.3,5.3c0.1,0.3,0.2,0.5,0.3,0.8c1,1,2.1,1.9,3.3,2.7C575.9,374.8,576.5,375.1,577.2,375.5z M567.9,356.3
				c-0.2-0.1-2.3-0.9-2.3-0.9c0.8-3,2.5-5.7,4.6-7.8c0.2-0.1,2.1,1.3,2.3,1.4c1.7,1.5,2.4,4,1.4,5.7c-0.5,1-1.5,1.6-2.6,1.8
				C570.2,356.8,569,356.6,567.9,356.3z"/>
			<path class="st14" d="M592.9,374.9c-1.6,0.9-3.4,1.5-5.3,1.9l0-5c0.9-0.1,1.8-0.4,2.6-0.7C590.9,372.5,591.8,373.8,592.9,374.9z"
				/>
			<path class="st14" d="M601.4,360.8c0,2.7-0.7,5.3-2,7.6v0c-0.8,1.4-1.7,2.6-2.8,3.7c-0.4-0.4-0.8-0.9-1.2-1.4
				c-0.6-0.8-1.2-1.7-1.6-2.6c0,0,0-0.1,0.1-0.1c0,0,0,0.1,0,0.1c0.6-0.7,1.2-1.5,1.6-2.4v0c0.8-1.5,1.2-3.2,1.2-5.1
				c0-0.7-0.1-1.4-0.2-2l-0.1,0v0l3,0l1.8,0C601.4,359.3,601.4,360.1,601.4,360.8z"/>
			<path class="st14" d="M595.4,378.9l0,5.1v0c-3.1,1.3-6.4,2-9.9,2c-3.3,0-6.4-0.6-9.3-1.7c-0.3-0.1-0.6-0.2-0.9-0.4v-5.2
				c0.7,0.4,1.4,0.7,2.1,1.1c1.9,0.8,3.9,1.4,6.1,1.6l0-4.3l0-5.1l0-22.4c0.6-0.1,1.3-0.2,1.9-0.2c0.7,0,1.5,0.1,2.2,0.2l0,9.9v0
				c0,0,0,3.2,0,3.2v0l0,9.1v0l0,5l0,4.6C590.4,381,593,380.2,595.4,378.9z"/>
			<path class="st14" d="M611,360.8c0,6.1-2.2,11.6-5.8,16c-1.1,1.4-2.4,2.6-3.8,3.7c-0.6,0.5-1.2,0.9-1.9,1.4l0-2.1l0-3.8
				c0.3-0.3,0.6-0.6,0.9-0.9c3.5-3.7,5.7-8.7,5.7-14.2c0-0.7,0-1.5-0.1-2.2l-4.7,0l-1.8,0l-3,0l-1,0l-3.2,0c0,0-0.2,1.4-0.2,2.2
				c0,0,0,0.1,0,0.1c0,2.6,0.6,5,1.7,7.2c0.5,0.9,1,1.8,1.6,2.6c0.4,0.5,0.8,0.9,1.2,1.4c-0.4,0.4-0.8,0.7-1.2,1.1
				c-0.8,0.6-1.7,1.2-2.6,1.7c-1.1-1.1-2-2.4-2.7-3.8c0,0,0,0,0,0c0,0,0-0.1-0.1-0.1c-1.4-2.5-2.3-5.3-2.5-8.3v0c0,0,0-3.2,0-3.2v0
				c0-2.1,0.6-4.2,1.5-6c0.1-0.3,1.3-2.8,1.4-2.8c0,0,0,0,0,0c0.4,0.2,0.7,0.4,1,0.6c0.1,0.1,0.2,0.1,0.2,0.2
				c0.2,0.1,0.3,0.2,0.5,0.3c0.7,0.5,1.3,1.1,1.9,1.8c0,0,0,0.1,0.1,0.1c0.1,0.1-0.2,0.7-0.5,1.2l1.3,0h0.1l0.5,0l3.9,0l0.7,0l5,0
				c-0.9-2.9-2.5-5.6-4.5-7.8c-0.4,0.2-0.8,0.5-1.2,0.7c-1,0.6-1.8,1.4-2.7,2.2c-0.4-0.4-0.8-0.8-1.2-1.1c-0.8-0.6-1.6-1.2-2.5-1.7
				c0.8-0.8,1.6-1.6,2.5-2.3c0.4-0.3,0.9-0.7,1.4-0.9c0.8-0.5,1.6-1,2.5-1.4c0.7-0.3,1.5-0.7,2.3-0.9c1.4,1.1,2.6,2.4,3.8,3.8
				C608.9,349.4,611,354.9,611,360.8z"/>
			<path class="st14" d="M600.1,354.6l-0.7,0l-3.9,0l-0.5,0h-0.1c-0.3-0.4-0.5-0.8-0.8-1.2c0,0,0-0.1-0.1-0.1
				c-0.6-0.7-1.2-1.3-1.9-1.8c-0.2-0.1-0.3-0.2-0.5-0.3c-0.1-0.1-0.2-0.1-0.2-0.2c-0.3-0.2-0.7-0.4-1-0.6c0,0,0,0,0,0
				c0,0-0.1,0-0.1,0c-0.9-0.4-1.8-0.7-2.7-0.9c0,0-0.1,0-0.1,0c-0.7-0.1-1.4-0.2-2.2-0.2c-0.7,0-1.3,0.1-1.9,0.2l0,27.3
				c-1.4-0.1-2.6,0-3.9,0l0-3.8l0-2.6l-0.1-19.3l0-2.6l0-0.9c0,0,0.1-3,0.1-3c0-0.2,2.4-0.1,4-0.1c0.7,0,1.3,0.1,1.5,0.1
				c0,0,0,0,0,0c0.8,0,1.5,0.1,2.3,0.2c0.1,0,0.2,0,0.3,0.1c2,0.3,3.9,1,5.6,2c0.9,0.5,1.7,1.1,2.5,1.7c0.4,0.4,0.8,0.7,1.2,1.1
				c1,1.1,1.9,2.2,2.7,3.5C599.7,353.7,599.9,354.1,600.1,354.6z"/>
		</g>
	</g>
</g>
</svg>
